# xmcd
#
# Track frame offsets:
#	150
#	17927
#	28716
#	40231
#	53701
#	65838
#	74522
#	86404
#	98055
#	107958
#	121236
#	132841
#	147188
#	159939
#	175219
#	185041
#	203415
#	215025
#	227693
#	243132
#	253978
#	273681
#
# Disc length: 3897 seconds
#
# Revision: 0
# Processed by: cddbd v1.5.2PL0 Copyright (c) Steve Scherf et al.
# Submitted via: EasyCDDAExtractor 16.0.6.1
#
DISCID=450f3716
DTITLE=Various Artist - Country Sunset [Disc 08]
DYEAR=1900
DGENRE=Country
TTITLE0=Johnny Lee - Lookin' For Love
TTITLE1=Jimmy C. Newman - A Fallen Star
TTITLE2=Sammi Smith - Help Me Make it Through the Night
TTITLE3=David Houston - Almost Persuaded
TTITLE4=Wilma Cooper and Stoney Lee - Come Walk with Me
TTITLE5=Johnnie and Jack - Oh, Baby Mine
TTITLE6=Tennessee Ernie Ford - Sixteen Tons
TTITLE7=Rusty Draper - Gambler's Guitar
TTITLE8=Jim Ed Brown - Southern Loving
TTITLE9=Jody Miller - He's So Fine
TTITLE10=Conway Twitty - To See an Angel Cry
TTITLE11=T. Graham Brown - Hell and High Water
TTITLE12=Lynn Anderson - I Fall to Pieces
TTITLE13=Melba Montgomery - No Charge
TTITLE14=Ray Price - Make the World Go Away
TTITLE15=Juice Newton - Break it to Me Gently
TTITLE16=Mickey Gilley - Window Up Above
TTITLE17=Lee Greenwood - Touch and Go Crazy
TTITLE18=Eddy Raven - You Should Have Been Gone by Now
TTITLE19=Hank Williams - Why Don't You Love Me
TTITLE20=Bellamy Brothers - If I Said You Had a Beautiful Body
TTITLE21=Wink Martindale - Deck of Cards
EXTD=
EXTT0=
EXTT1=
EXTT2=
EXTT3=
EXTT4=
EXTT5=
EXTT6=
EXTT7=
EXTT8=
EXTT9=
EXTT10=
EXTT11=
EXTT12=
EXTT13=
EXTT14=
EXTT15=
EXTT16=
EXTT17=
EXTT18=
EXTT19=
EXTT20=
EXTT21=
PLAYORDER=
